<?xml version="1.0" standalone="no"?>
<!DOCTYPE svg PUBLIC "-//W3C//DTD SVG 20010904//EN"
 "http://www.w3.org/TR/2001/REC-SVG-20010904/DTD/svg10.dtd">
<svg version="1.0" xmlns="http://www.w3.org/2000/svg"
 width="2550.000000pt" height="3300.000000pt" viewBox="0 0 2550.000000 3300.000000"
 preserveAspectRatio="xMidYMid meet">

<g transform="translate(0.000000,3300.000000) scale(0.100000,-0.100000)"
fill="#000000" stroke="none">
<path d="M0 31630 c0 -7 4257 -10 12750 -10 8493 0 12750 3 12750 10 0 7
-4257 10 -12750 10 -8493 0 -12750 -3 -12750 -10z"/>
<path d="M3668 18354 c-5 -4 -72 -8 -150 -8 -138 -1 -145 -2 -196 -30 -73 -41
-163 -125 -194 -182 -14 -27 -33 -76 -42 -109 -8 -33 -41 -118 -72 -190 -31
-71 -84 -200 -119 -285 -59 -142 -176 -422 -326 -775 -33 -77 -82 -194 -109
-260 -65 -161 -249 -578 -261 -589 -16 -18 -9 -28 14 -22 13 3 183 84 379 180
l355 174 61 143 c86 206 238 579 402 989 139 348 174 420 191 403 11 -11 81
-171 218 -500 134 -320 217 -507 228 -510 10 -4 451 202 466 216 7 7 -62 178
-158 391 -73 160 -264 616 -310 739 -34 91 -84 145 -178 191 -65 32 -182 52
-199 34z"/>
<path d="M14328 18003 l-248 -3 -2 -943 c-5 -1820 -5 -1864 15 -1942 38 -148
118 -268 225 -336 148 -94 406 -103 637 -22 65 23 80 32 79 48 -1 11 -18 81
-37 155 -20 74 -39 156 -43 183 -3 26 -10 49 -14 52 -4 3 -34 0 -65 -7 -101
-20 -182 14 -232 99 l-26 45 -1 1337 c-1 1329 -1 1336 -21 1336 -11 1 -131 -1
-267 -2z"/>
<path d="M11432 17973 c-4 -10 -7 -742 -7 -1628 l0 -1610 278 -3 277 -2 0 638
c0 662 5 761 41 859 49 128 153 235 279 284 68 27 229 37 312 20 80 -17 170
-64 213 -113 49 -53 92 -147 104 -228 7 -40 11 -330 11 -762 l0 -698 275 0
276 0 -3 828 c-3 820 -4 828 -26 907 -29 108 -101 248 -158 313 -85 97 -201
169 -344 214 -66 20 -95 23 -240 23 -142 0 -176 -3 -244 -23 -156 -45 -297
-131 -421 -256 l-80 -81 3 668 3 667 -271 0 c-248 0 -271 -1 -278 -17z"/>
<path d="M19554 17950 c-71 -28 -137 -89 -171 -158 -24 -48 -28 -70 -28 -137
0 -66 5 -90 27 -137 35 -76 98 -142 167 -175 47 -24 69 -28 136 -28 102 0 172
32 243 109 112 124 108 313 -9 441 -72 78 -118 99 -224 102 -72 3 -100 -1
-141 -17z"/>
<path d="M22152 17944 c-100 -27 -196 -116 -250 -233 -31 -68 -38 -125 -22
-193 32 -133 117 -241 237 -300 61 -30 77 -33 153 -33 78 0 90 3 148 34 82 45
173 141 203 218 19 46 24 77 24 148 0 81 -3 96 -32 150 -90 174 -277 259 -461
209z m161 -64 c84 -12 132 -36 183 -92 63 -68 89 -131 88 -208 -3 -134 -78
-251 -200 -311 -115 -57 -220 -39 -320 53 -57 53 -84 94 -114 175 -38 104 -12
198 79 296 54 58 83 74 153 86 29 5 55 9 58 10 3 0 36 -4 73 -9z"/>
<path d="M22165 17812 c-27 -6 -31 -12 -37 -57 -3 -28 -7 -127 -7 -221 -1
-166 0 -171 22 -192 13 -12 26 -22 30 -22 4 0 7 26 8 58 0 31 3 75 7 97 7 35
10 40 32 37 14 -2 36 -18 50 -35 48 -63 131 -145 151 -150 42 -11 7 70 -65
150 l-46 51 45 22 c59 29 100 94 91 145 -8 43 -56 92 -104 104 -53 15 -142 21
-177 13z m176 -88 c28 -25 22 -81 -11 -105 -14 -10 -51 -22 -82 -25 l-58 -7 0
83 0 83 65 -6 c44 -3 73 -11 86 -23z"/>
<path d="M8007 17763 c-81 -3 -119 -7 -122 -16 -8 -24 -220 -595 -402 -1082
-250 -671 -317 -852 -433 -1170 -91 -252 -219 -592 -268 -712 l-22 -53 311 0
310 0 18 43 c10 23 60 168 111 323 l94 281 134 7 c74 3 339 6 588 6 347 0 455
-3 461 -12 4 -7 56 -154 114 -328 l106 -315 306 -3 c169 -1 307 0 307 3 0 4
-20 59 -45 123 -82 217 -178 478 -406 1107 -66 182 -169 463 -229 625 -204
552 -331 895 -383 1035 l-53 140 -189 0 c-105 1 -243 -1 -308 -2z m263 -753
c34 -113 99 -320 145 -460 104 -317 215 -666 215 -674 0 -3 -196 -6 -435 -6
-265 0 -435 4 -435 9 0 6 67 214 149 463 82 249 177 539 212 643 70 217 78
239 83 234 2 -2 31 -96 66 -209z"/>
<path d="M9908 17283 l-3 -298 -172 -3 -173 -2 0 -221 c0 -133 4 -228 10 -240
10 -18 23 -19 175 -19 l165 0 0 -638 c0 -603 1 -643 20 -716 53 -208 199 -352
420 -416 116 -34 324 -38 457 -11 105 22 224 61 256 85 16 12 15 18 -17 87
-44 98 -84 218 -92 278 -10 75 -12 77 -86 56 -38 -11 -97 -19 -148 -19 -151
-1 -230 58 -267 198 -11 41 -12 154 -7 574 l7 522 259 0 258 0 -2 243 -3 242
-240 0 c-132 0 -250 1 -263 3 l-23 2 1 293 2 292 -266 3 -266 2 -2 -297z"/>
<path d="M17918 17573 l-48 -4 0 -294 0 -294 -152 -3 -153 -3 0 -230 0 -230
153 -3 152 -3 0 -603 c-1 -644 2 -679 51 -812 57 -151 188 -285 339 -344 103
-41 332 -64 445 -45 133 22 325 79 325 97 0 6 -12 54 -26 107 -15 53 -37 146
-49 206 -26 127 -9 118 -170 90 -83 -14 -110 -15 -155 -6 -117 25 -189 97
-207 208 -5 33 -7 285 -5 580 l4 523 256 2 257 3 3 232 2 233 -262 2 -263 3
-3 298 -2 297 -223 -2 c-122 -1 -243 -3 -269 -5z"/>
<path d="M16058 17000 c-362 -66 -644 -288 -802 -632 -92 -198 -125 -445 -95
-693 55 -450 395 -842 826 -951 260 -66 555 -55 859 31 97 27 392 169 401 192
3 8 -10 56 -30 106 -43 110 -118 290 -123 296 -2 2 -58 -21 -123 -52 -241
-114 -404 -153 -611 -144 -139 6 -205 23 -325 85 -80 42 -188 143 -229 214
-31 53 -61 136 -69 191 l-6 37 782 0 c430 0 788 4 795 9 11 7 13 54 10 242 -4
215 -7 243 -32 339 -83 317 -286 553 -578 669 -141 56 -229 73 -393 77 -117 3
-173 -1 -257 -16z m418 -455 c120 -45 201 -118 254 -230 27 -57 60 -166 60
-198 0 -12 -73 -15 -522 -19 -288 -3 -526 -3 -530 1 -23 20 66 228 126 298 71
81 201 151 319 173 82 14 219 3 293 -25z"/>
<path d="M21910 16983 c-8 -2 -28 -25 -45 -51 -104 -166 -419 -642 -424 -641
-3 0 -21 24 -40 52 -19 29 -100 151 -181 272 -80 121 -164 250 -186 288 -22
38 -48 70 -59 72 -11 3 -161 4 -332 3 l-313 -3 86 -115 c72 -97 320 -443 626
-871 37 -53 68 -99 68 -102 0 -7 -94 -146 -235 -347 -60 -85 -176 -252 -258
-370 -83 -118 -181 -260 -220 -315 -38 -55 -72 -105 -74 -112 -4 -10 56 -13
289 -13 345 0 295 -21 415 170 208 329 397 620 402 620 3 0 123 -177 267 -393
l261 -392 311 -3 c172 -1 312 0 312 4 0 6 -127 193 -182 269 -16 22 -80 110
-141 196 -95 133 -255 354 -444 613 -24 33 -43 68 -43 77 0 22 40 82 250 380
92 129 220 314 286 410 65 95 138 200 161 233 24 32 43 62 43 67 0 9 -570 11
-600 2z"/>
<path d="M19458 16973 l-48 -4 0 -1120 0 -1119 275 0 275 0 2 1110 c0 611 1
1116 2 1123 1 9 -52 12 -229 13 -126 0 -251 -1 -277 -3z"/>
<path d="M5150 16953 c-29 -10 -311 -144 -545 -258 -130 -63 -238 -115 -240
-115 -4 0 -638 -303 -865 -413 -173 -84 -814 -399 -1292 -636 l-247 -123 -17
-51 c-9 -29 -32 -86 -50 -127 -29 -65 -123 -285 -255 -595 -21 -49 -39 -103
-39 -118 0 -62 88 -180 163 -219 52 -26 137 -39 180 -27 46 12 134 71 234 155
44 38 161 136 260 219 98 82 207 175 243 205 492 423 907 772 1324 1115 121
99 306 253 411 342 106 88 263 218 350 288 189 151 415 346 415 357 0 9 -8 9
-30 1z"/>
<path d="M4593 16321 c-172 -123 -181 -130 -247 -188 l-48 -42 32 -58 c31 -57
89 -185 405 -893 299 -671 340 -755 391 -804 54 -52 109 -70 198 -63 91 7 151
32 206 87 48 48 70 94 70 147 0 48 -52 168 -450 1058 -88 197 -175 392 -255
575 -84 192 -132 290 -143 290 -4 0 -75 -49 -159 -109z"/>
</g>
</svg>
