<?xml version="1.0" encoding="UTF-8" standalone="no"?>
<!DOCTYPE svg PUBLIC "-//W3C//DTD SVG 1.1//EN" "http://www.w3.org/Graphics/SVG/1.1/DTD/svg11.dtd">
<svg width="100%" height="100%" viewBox="0 0 2096 415" version="1.1" xmlns="http://www.w3.org/2000/svg" xmlns:xlink="http://www.w3.org/1999/xlink" xml:space="preserve" xmlns:serif="http://www.serif.com/" style="fill-rule:evenodd;clip-rule:evenodd;stroke-linejoin:round;stroke-miterlimit:2;">
    <g id="Artboard1" transform="matrix(0.898704,0,0,0.604247,-52.1387,-790.932)">
        <rect x="58.015" y="1308.95" width="2332.24" height="685.866" style="fill:none;"/>
        <clipPath id="_clip1">
            <rect x="58.015" y="1308.95" width="2332.24" height="685.866"/>
        </clipPath>
        <g clip-path="url(#_clip1)">
            <g transform="matrix(0.111271,0,0,-0.165495,-118.205,4354.48)">
                <path d="M3668,18354C3663,18350 3596,18346 3518,18346C3380,18345 3373,18344 3322,18316C3249,18275 3159,18191 3128,18134C3114,18107 3095,18058 3086,18025C3078,17992 3045,17907 3014,17835C2983,17764 2930,17635 2895,17550C2836,17408 2719,17128 2569,16775C2536,16698 2487,16581 2460,16515C2395,16354 2211,15937 2199,15926C2183,15908 2190,15898 2213,15904C2226,15907 2396,15988 2592,16084L2947,16258L3008,16401C3094,16607 3246,16980 3410,17390C3549,17738 3584,17810 3601,17793C3612,17782 3682,17622 3819,17293C3953,16973 4036,16786 4047,16783C4057,16779 4498,16985 4513,16999C4520,17006 4451,17177 4355,17390C4282,17550 4091,18006 4045,18129C4011,18220 3961,18274 3867,18320C3802,18352 3685,18372 3668,18354Z" style="fill-rule:nonzero;"/>
                <path d="M14328,18003L14080,18000L14078,17057C14073,15237 14073,15193 14093,15115C14131,14967 14211,14847 14318,14779C14466,14685 14724,14676 14955,14757C15020,14780 15035,14789 15034,14805C15033,14816 15016,14886 14997,14960C14977,15034 14958,15116 14954,15143C14951,15169 14944,15192 14940,15195C14936,15198 14906,15195 14875,15188C14774,15168 14693,15202 14643,15287L14617,15332L14616,16669C14615,17998 14615,18005 14595,18005C14584,18006 14464,18004 14328,18003Z" style="fill-rule:nonzero;"/>
                <path d="M11432,17973C11428,17963 11425,17231 11425,16345L11425,14735L11703,14732L11980,14730L11980,15368C11980,16030 11985,16129 12021,16227C12070,16355 12174,16462 12300,16511C12368,16538 12529,16548 12612,16531C12692,16514 12782,16467 12825,16418C12874,16365 12917,16271 12929,16190C12936,16150 12940,15860 12940,15428L12940,14730L13491,14730L13488,15558C13485,16378 13484,16386 13462,16465C13433,16573 13361,16713 13304,16778C13219,16875 13103,16947 12960,16992C12894,17012 12865,17015 12720,17015C12578,17015 12544,17012 12476,16992C12320,16947 12179,16861 12055,16736L11975,16655L11978,17323L11981,17990L11710,17990C11462,17990 11439,17989 11432,17973Z" style="fill-rule:nonzero;"/>
                <path d="M19554,17950C19483,17922 19417,17861 19383,17792C19359,17744 19355,17722 19355,17655C19355,17589 19360,17565 19382,17518C19417,17442 19480,17376 19549,17343C19596,17319 19618,17315 19685,17315C19787,17315 19857,17347 19928,17424C20040,17548 20036,17737 19919,17865C19847,17943 19801,17964 19695,17967C19623,17970 19595,17966 19554,17950Z" style="fill-rule:nonzero;"/>
                <path d="M8007,17763C7926,17760 7888,17756 7885,17747C7877,17723 7665,17152 7483,16665C7233,15994 7166,15813 7050,15495C6959,15243 6831,14903 6782,14783L6760,14730L7381,14730L7399,14773C7409,14796 7459,14941 7510,15096L7604,15377L7738,15384C7812,15387 8077,15390 8326,15390C8673,15390 8781,15387 8787,15378C8791,15371 8843,15224 8901,15050L9007,14735L9313,14732C9482,14731 9620,14732 9620,14735C9620,14739 9600,14794 9575,14858C9493,15075 9397,15336 9169,15965C9103,16147 9000,16428 8940,16590C8736,17142 8609,17485 8557,17625L8504,17765L8315,17765C8210,17766 8072,17764 8007,17763ZM8270,17010C8304,16897 8369,16690 8415,16550C8519,16233 8630,15884 8630,15876C8630,15873 8434,15870 8195,15870C7930,15870 7760,15874 7760,15879C7760,15885 7827,16093 7909,16342C7991,16591 8086,16881 8121,16985C8191,17202 8199,17224 8204,17219C8206,17217 8235,17123 8270,17010Z" style="fill-rule:nonzero;"/>
                <path d="M9908,17283L9905,16985L9733,16982L9560,16980L9560,16759C9560,16626 9564,16531 9570,16519C9580,16501 9593,16500 9745,16500L9910,16500L9910,15862C9910,15259 9911,15219 9930,15146C9983,14938 10129,14794 10350,14730C10466,14696 10674,14692 10807,14719C10912,14741 11031,14780 11063,14804C11079,14816 11078,14822 11046,14891C11002,14989 10962,15109 10954,15169C10944,15244 10942,15246 10868,15225C10830,15214 10771,15206 10720,15206C10569,15205 10490,15264 10453,15404C10442,15445 10441,15558 10446,15978L10453,16500L10970,16500L10968,16743L10965,16985L10725,16985C10593,16985 10475,16986 10462,16988L10439,16990L10440,17283L10442,17575L10176,17578L9910,17580L9908,17283Z" style="fill-rule:nonzero;"/>
                <path d="M17918,17573L17870,17569L17870,16981L17718,16978L17565,16975L17565,16515L17718,16512L17870,16509L17870,15906C17869,15262 17872,15227 17921,15094C17978,14943 18109,14809 18260,14750C18363,14709 18592,14686 18705,14705C18838,14727 19030,14784 19030,14802C19030,14808 19018,14856 19004,14909C18989,14962 18967,15055 18955,15115C18929,15242 18946,15233 18785,15205C18702,15191 18675,15190 18630,15199C18513,15224 18441,15296 18423,15407C18418,15440 18416,15692 18418,15987L18422,16510L18678,16512L18935,16515L18938,16747L18940,16980L18678,16982L18415,16985L18412,17283L18410,17580L18187,17578C18065,17577 17944,17575 17918,17573Z" style="fill-rule:nonzero;"/>
                <path d="M16058,17000C15696,16934 15414,16712 15256,16368C15164,16170 15131,15923 15161,15675C15216,15225 15556,14833 15987,14724C16247,14658 16542,14669 16846,14755C16943,14782 17238,14924 17247,14947C17250,14955 17237,15003 17217,15053C17174,15163 17099,15343 17094,15349C17092,15351 17036,15328 16971,15297C16730,15183 16567,15144 16360,15153C16221,15159 16155,15176 16035,15238C15955,15280 15847,15381 15806,15452C15775,15505 15745,15588 15737,15643L15731,15680L16513,15680C16943,15680 17301,15684 17308,15689C17319,15696 17321,15743 17318,15931C17314,16146 17311,16174 17286,16270C17203,16587 17000,16823 16708,16939C16567,16995 16479,17012 16315,17016C16198,17019 16142,17015 16058,17000ZM16476,16545C16596,16500 16677,16427 16730,16315C16757,16258 16790,16149 16790,16117C16790,16105 16717,16102 16268,16098C15980,16095 15742,16095 15738,16099C15715,16119 15804,16327 15864,16397C15935,16478 16065,16548 16183,16570C16265,16584 16402,16573 16476,16545Z" style="fill-rule:nonzero;"/>
                <path d="M21910,16983C21902,16981 21882,16958 21865,16932C21761,16766 21446,16290 21441,16291C21438,16291 21420,16315 21401,16343C21382,16372 21301,16494 21220,16615C21140,16736 21056,16865 21034,16903C21012,16941 20986,16973 20975,16975C20964,16978 20814,16979 20643,16978L20330,16975L20416,16860C20488,16763 20736,16417 21042,15989C21079,15936 21110,15890 21110,15887C21110,15880 21016,15741 20875,15540C20815,15455 20699,15288 20617,15170C20534,15052 20436,14910 20397,14855C20359,14800 20325,14750 20323,14743C20319,14733 20379,14730 20612,14730C20957,14730 20907,14709 21027,14900C21235,15229 21424,15520 21429,15520C21432,15520 21552,15343 21696,15127L21957,14735L22268,14732C22440,14731 22580,14732 22580,14736C22580,14742 22453,14929 22398,15005C22382,15027 22318,15115 22257,15201C22162,15334 22002,15555 21813,15814C21789,15847 21770,15882 21770,15891C21770,15913 21810,15973 22020,16271C22112,16400 22240,16585 22306,16681C22371,16776 22444,16881 22467,16914C22491,16946 22510,16976 22510,16981C22510,16990 21940,16992 21910,16983Z" style="fill-rule:nonzero;"/>
                <path d="M19458,16973L19410,16969L19410,14730L19960,14730L19962,15840C19962,16451 19963,16956 19964,16963C19965,16972 19912,16975 19735,16976C19609,16976 19484,16975 19458,16973Z" style="fill-rule:nonzero;"/>
                <path d="M5150,16953C5121,16943 4839,16809 4605,16695C4475,16632 4367,16580 4365,16580C4361,16580 3727,16277 3500,16167C3327,16083 2686,15768 2208,15531L1961,15408L1944,15357C1935,15328 1912,15271 1894,15230C1865,15165 1771,14945 1639,14635C1618,14586 1600,14532 1600,14517C1600,14455 1688,14337 1763,14298C1815,14272 1900,14259 1943,14271C1989,14283 2077,14342 2177,14426C2221,14464 2338,14562 2437,14645C2535,14727 2644,14820 2680,14850C3172,15273 3587,15622 4004,15965C4125,16064 4310,16218 4415,16307C4521,16395 4678,16525 4765,16595C4954,16746 5180,16941 5180,16952C5180,16961 5172,16961 5150,16953Z" style="fill-rule:nonzero;"/>
                <path d="M4593,16321C4421,16198 4412,16191 4346,16133L4298,16091L4330,16033C4361,15976 4419,15848 4735,15140C5034,14469 5075,14385 5126,14336C5180,14284 5235,14266 5324,14273C5415,14280 5475,14305 5530,14360C5578,14408 5600,14454 5600,14507C5600,14555 5548,14675 5150,15565C5062,15762 4975,15957 4895,16140C4811,16332 4763,16430 4752,16430C4748,16430 4677,16381 4593,16321Z" style="fill-rule:nonzero;"/>
            </g>
        </g>
    </g>
</svg>
